<?xml version="1.0" encoding="UTF-8"?>
<!--
  MarkdownExplorer app icon.
  Composite of Tabler `folder-search` (MIT) on a slate rounded square.
  Source: https://github.com/tabler/tabler-icons/blob/main/icons/outline/folder-search.svg
-->
<svg xmlns="http://www.w3.org/2000/svg"
     viewBox="0 0 1024 1024"
     width="1024" height="1024">
  <rect x="0" y="0" width="1024" height="1024"
        rx="230" ry="230"
        fill="#2A2D3A"/>
  <g transform="translate(104, 104) scale(34)"
     fill="none"
     stroke="#E8E8EA"
     stroke-width="1.4"
     stroke-linecap="round"
     stroke-linejoin="round">
    <path d="M11 19h-6a2 2 0 0 1 -2 -2v-11a2 2 0 0 1 2 -2h4l3 3h7a2 2 0 0 1 2 2v2.5"/>
    <path d="M15 18a3 3 0 1 0 6 0a3 3 0 1 0 -6 0"/>
    <path d="M20.2 20.2l1.8 1.8"/>
  </g>
</svg>
